Coordinates
version=1
nRows=30
nColumns=19
inDegrees=yes

Units are S.I. units (second, meters, Newtons, ...)
If the header above contains a line with 'inDegrees', this indicates whether rotational values are in degrees (yes) or radians (no).

endheader
time	pelvis_tilt	pelvis_list	pelvis_rotation	pelvis_tx	pelvis_ty	pelvis_tz	hip_flexion_r	hip_adduction_r	hip_rotation_r	knee_angle_r	knee_angle_r_beta	ankle_angle_r	hip_flexion_l	hip_adduction_l	hip_rotation_l	knee_angle_l	knee_angle_l_beta	ankle_angle_l
     16.76666667	     -5.83790656	      5.49437893	      0.93225463	      2.27500144	      0.96391718	      1.02509315	    -13.01247576	    -13.86366467	    -26.23231616	     51.58823315	      0.90038452	    -12.57244504	     22.75158402	      7.36218125	     -2.21484600	      4.65978799	      0.08132864	      7.36906191
     16.77333333	     -5.76338798	      5.77529134	      1.24928598	      2.27481932	      0.96073652	      1.02361358	    -11.93092073	    -14.64004749	    -25.65527953	     54.94736018	      0.95901235	    -11.91079232	     22.91869981	      7.67123997	     -2.72872971	      6.71617461	      0.11721936	      6.98738354
     16.78000000	     -5.74023247	      6.01417422	      1.71282095	      2.27432787	      0.95719511	      1.02206487	    -10.68351975	    -15.30541590	    -25.08139152	     58.32514226	      1.01796577	    -11.41489277	     23.38072876	      7.95340350	     -3.23910395	      9.57952794	      0.16719430	      6.78556433
     16.78666667	     -5.87538243	      6.10997027	      2.20228182	      2.27351226	      0.95321313	      1.02055984	     -9.07153423	    -15.74772298	    -24.30184631	     61.72345505	      1.07727752	    -10.95700615	     24.21164268	      8.04914014	     -3.82895164	     13.09298831	      0.22851575	      6.65579588
     16.79333333	     -6.02525373	      6.06918365	      2.67605898	      2.27245369	      0.94892096	      1.01922393	     -7.27500565	    -15.98253095	    -23.38342387	     65.08994179	      1.13603379	    -10.60858748	     25.14213455	      7.95872467	     -4.39909106	     16.98109091	      0.29637595	      6.78009687
     16.80000000	     -6.24288579	      5.91236146	      3.13552630	      2.27121676	      0.94433993	      1.01804972	     -5.24787862	    -16.04467524	    -22.37389104	     68.40374491	      1.19387057	    -10.36500962	     26.10922542	      7.73059817	     -4.82599303	     20.95283520	      0.36569596	      7.14561296
     16.80666667	     -6.38220912	      5.66806586	      3.54437140	      2.26979881	      0.93979314	      1.01706715	     -3.16359838	    -15.94526252	    -21.29270559	     71.59746338	      1.24961147	    -10.14275651	     26.88993403	      7.39403413	     -5.11804205	     24.83377549	      0.43343115	      7.85243262
     16.81333333	     -6.41294393	      5.35556882	      3.89776658	      2.26819725	      0.93547671	      1.01629137	     -1.06379297	    -15.69427456	    -20.15641205	     74.64048989	      1.30272230	     -9.94050081	     27.37619079	      6.99178726	     -5.20664540	     28.43856145	      0.49634653	      8.84491940
     16.82000000	     -6.45000700	      5.00957483	      4.22287226	      2.26645718	      0.93142724	      1.01567043	      1.14678670	    -15.36554261	    -19.03349121	     77.50889342	      1.35278539	     -9.77121381	     27.64015662	      6.58733095	     -5.07660717	     31.64654443	      0.55233640	     10.23523829
     16.82666667	     -6.37123940	      4.66925167	      4.49645861	      2.26455118	      0.92792961	      1.01518817	      3.32438327	    -14.98141853	    -17.92055347	     80.16096858	      1.39907283	     -9.57348770	     27.52876319	      6.20994998	     -4.78965895	     34.40012584	      0.60039546	     11.89066622
     16.83333333	     -6.16816599	      4.33090091	      4.71436052	      2.26255068	      0.92507925	      1.01480920	      5.44047202	    -14.53373337	    -16.81884335	     82.55873262	      1.44092171	     -9.34872689	     27.01455743	      5.84143210	     -4.39304990	     36.66526879	      0.63992966	     13.77849347
     16.84000000	     -6.08303345	      4.00092927	      4.92746725	      2.26047754	      0.92274061	      1.01447186	      7.73472490	    -14.07861291	    -15.79272656	     84.71368877	      1.47853279	     -9.04093815	     26.34023302	      5.52032310	     -3.87944719	     38.39897770	      0.67018859	     15.76294961
     16.84666667	     -5.53650487	      3.89434894	      5.21318019	      2.25859163	      0.92165201	      1.01401665	      9.40520327	    -13.90047544	    -15.05479813	     86.48368871	      1.50942512	     -8.69107955	     24.76468455	      5.47810906	     -3.17943383	     39.41273739	      0.68788203	     17.81110893
     16.85333333	     -5.49978714	      3.50474866	      5.15272322	      2.25655856	      0.92072892	      1.01398671	     11.88203622	    -13.21222438	    -13.85589424	     88.02148196	      1.53626467	     -8.25373068	     23.57845002	      4.99425308	     -2.79552739	     40.09323560	      0.69975897	     19.68949122
     16.86000000	     -5.52764368	      3.27071707	      5.23095304	      2.25482914	      0.92048788	      1.01367966	     14.27666419	    -12.80419915	    -12.98873558	     89.20941123	      1.55699795	     -7.79685820	     22.09626122	      4.77897610	     -2.20980108	     40.11625947	      0.70016081	     21.40596205
     16.86666667	     -5.39320944	      2.97399559	      5.44926323	      2.25339177	      0.92122316	      1.01316296	     16.32610018	    -12.34882902	    -12.43881812	     89.95136214	      1.56994744	     -7.25220242	     20.15840975	      4.56273753	     -1.35149759	     39.61643891	      0.69143730	     22.84642502
     16.87333333	     -5.42628927	      2.63730880	      5.54298741	      2.25227003	      0.92251226	      1.01276400	     18.50354217	    -11.82237970	    -11.88371021	     90.33613702	      1.57666302	     -6.62648827	     18.14598566	      4.24325411	     -0.63531785	     38.62599712	      0.67415083	     23.92917847
     16.88000000	     -5.62362533	      2.28788094	      5.51204182	      2.25162018	      0.92431757	      1.01236809	     20.75996660	    -11.27996007	    -11.34781575	     90.35602704	      1.57701017	     -5.93637021	     16.03923088	      3.86589554	     -0.10557085	     37.12200570	      0.64790122	     24.59197682
     16.88666667	     -5.47232690	      2.44778385	      4.92225020	      2.25140312	      0.92711274	      1.01252873	     22.68142547	    -11.05067222	    -10.22290620	     90.14724789	      1.57336629	     -5.26424002	     13.13372804	      3.84948882	     -0.26673901	     34.85890657	      0.60840269	     24.53585276
     16.89333333	     -5.21285527	      2.18950706	      4.79405573	      2.25165833	      0.93064205	      1.01215672	     24.08267534	    -10.56262285	     -9.91538828	     89.38288399	      1.56002562	     -4.50998009	     10.02909581	      3.55312136	      0.26392606	     32.35022073	      0.56461787	     24.05848870
     16.90000000	     -5.21417894	      1.85124369	      4.64947087	      2.25224107	      0.93427867	      1.01180880	     25.62411552	    -10.01551544	     -9.73747354	     88.31198298	      1.54133487	     -3.74896960	      7.11332894	      3.18026700	      0.74535859	     29.60955812	      0.51678428	     22.99412460
     16.90666667	     -5.27310157	      1.44351847	      4.52519695	      2.25313239	      0.93816557	      1.01149941	     27.04621895	     -9.43297089	     -9.75070020	     86.92111041	      1.51705957	     -2.94920065	      4.19885759	      2.73264822	      1.22332317	     26.67867126	      0.46563065	     21.32512742
     16.91333333	     -5.55137772	      0.99841347	      4.36303517	      2.25420543	      0.94199701	      1.01127674	     28.58057242	     -8.82044670	     -9.84473888	     85.27584846	      1.48834433	     -2.18566642	      1.54446675	      2.24244664	      1.57352922	     23.71338307	      0.41387661	     19.05127782
     16.92000000	     -5.51469694	      0.35803322	      4.38482454	      2.25560124	      0.94640945	      1.01096412	     29.48829626	     -8.10239054	    -10.37503044	     83.22039416	      1.45246988	     -1.42920142	     -1.38268774	      1.49430646	      1.96980042	     20.75604052	      0.36226125	     16.32024583
     16.92666667	     -5.75219555	     -0.28319140	      4.40572172	      2.25698698	      0.95057294	      1.01079113	     30.58570748	     -7.43267341	    -11.00698993	     80.96257236	      1.41306346	     -0.70885715	     -3.83028509	      0.73127500	      2.20877208	     18.04169125	      0.31488691	     12.99868135
     16.93333333	     -6.02884224	     -0.92624496	      4.47353894	      2.25844714	      0.95471894	      1.01068208	     31.56862627	     -6.78986566	    -11.76712936	     78.44441027	      1.36911324	     -0.02861541	     -6.03265454	     -0.06256215	      2.23208572	     15.60311910	      0.27232580	      9.34045299
     16.94000000	     -6.26900337	     -1.58838578	      4.62372850	      2.25995904	      0.95893377	      1.01058933	     32.33560047	     -6.18231149	    -12.71482239	     75.64453361	      1.32024617	      0.58782914	     -8.02878789	     -0.90879968	      2.09874927	     13.50821285	      0.23576279	      5.41537960
     16.94666667	     -6.49820168	     -2.21742437	      4.81477050	      2.26147774	      0.96313132	      1.01054594	     32.93872937	     -5.63306130	    -13.77133234	     72.58690849	      1.26688055	      1.14244424	     -9.77400680	     -1.74124122	      1.74699837	     11.79840684	      0.20592105	      1.36759446
     16.95333333	     -7.26747812	     -2.75304567	      4.95686837	      2.26288724	      0.96667834	      1.01065845	     34.04397273	     -5.17157940	    -14.75158612	     69.34615148	      1.21031867	      1.57616913	    -10.61305261	     -2.43056466	      1.17450709	     10.63274182	      0.18557635	     -2.59716638
     16.96000000	     -7.96892600	     -2.84616622	      5.16842027	      2.26382783	      0.96998175	      1.01078701	     35.01842094	     -5.17631166	    -15.62184044	     66.06355423	      1.15302654	      2.19478747	    -10.99304307	     -2.69927331	      0.19615220	     10.43696050	      0.18215932	     -6.43020323
